<mxfile host="Electron" modified="2024-07-24T09:41:19.972Z" agent="Mozilla/5.0 (Windows NT 10.0; Win64; x64) AppleWebKit/537.36 (KHTML, like Gecko) draw.io/24.6.4 Chrome/124.0.6367.207 Electron/30.0.6 Safari/537.36" etag="VsQB1qFIdKUOOhU5vbgP" version="24.6.4" type="device" pages="2">
  <diagram name="erd" id="DYQlRuMrFnFYqKwhEdKq">
    <mxGraphModel dx="1900" dy="1729" grid="1" gridSize="10" guides="1" tooltips="1" connect="1" arrows="1" fold="1" page="1" pageScale="1" pageWidth="850" pageHeight="1100" math="0" shadow="0">
      <root>
        <mxCell id="0" />
        <mxCell id="1" parent="0" />
        <mxCell id="8NEK74VxoEMSqOfzrdbr-6" style="edgeStyle=orthogonalEdgeStyle;rounded=0;orthogonalLoop=1;jettySize=auto;html=1;" parent="1" edge="1">
          <mxGeometry relative="1" as="geometry">
            <mxPoint x="59.99999999999977" y="170.00000000000023" as="targetPoint" />
            <mxPoint x="319.9999999999998" y="170.00000000000023" as="sourcePoint" />
            <Array as="points">
              <mxPoint x="130" y="170" />
              <mxPoint x="130" y="170" />
            </Array>
          </mxGeometry>
        </mxCell>
        <mxCell id="8NEK74VxoEMSqOfzrdbr-7" value="publish" style="edgeLabel;html=1;align=center;verticalAlign=middle;resizable=0;points=[];" parent="8NEK74VxoEMSqOfzrdbr-6" vertex="1" connectable="0">
          <mxGeometry x="0.1063" relative="1" as="geometry">
            <mxPoint x="14" as="offset" />
          </mxGeometry>
        </mxCell>
        <mxCell id="8NEK74VxoEMSqOfzrdbr-11" style="edgeStyle=orthogonalEdgeStyle;rounded=0;orthogonalLoop=1;jettySize=auto;html=1;entryX=0.5;entryY=1;entryDx=0;entryDy=0;" parent="1" source="4s1ClKieDDgsjrppkfxK-3" target="8NEK74VxoEMSqOfzrdbr-10" edge="1">
          <mxGeometry relative="1" as="geometry">
            <Array as="points">
              <mxPoint x="390" />
              <mxPoint x="475" />
            </Array>
          </mxGeometry>
        </mxCell>
        <mxCell id="8NEK74VxoEMSqOfzrdbr-12" value="has" style="edgeLabel;html=1;align=center;verticalAlign=middle;resizable=0;points=[];" parent="8NEK74VxoEMSqOfzrdbr-11" vertex="1" connectable="0">
          <mxGeometry x="-0.0175" y="-2" relative="1" as="geometry">
            <mxPoint as="offset" />
          </mxGeometry>
        </mxCell>
        <mxCell id="8NEK74VxoEMSqOfzrdbr-16" style="edgeStyle=orthogonalEdgeStyle;rounded=0;orthogonalLoop=1;jettySize=auto;html=1;" parent="1" source="4s1ClKieDDgsjrppkfxK-3" target="8NEK74VxoEMSqOfzrdbr-15" edge="1">
          <mxGeometry relative="1" as="geometry">
            <Array as="points" />
          </mxGeometry>
        </mxCell>
        <mxCell id="8NEK74VxoEMSqOfzrdbr-17" value="has" style="edgeLabel;html=1;align=center;verticalAlign=middle;resizable=0;points=[];" parent="8NEK74VxoEMSqOfzrdbr-16" vertex="1" connectable="0">
          <mxGeometry x="0.1411" y="2" relative="1" as="geometry">
            <mxPoint y="2" as="offset" />
          </mxGeometry>
        </mxCell>
        <mxCell id="4s1ClKieDDgsjrppkfxK-3" value="&lt;b&gt;USER&lt;/b&gt;" style="whiteSpace=wrap;html=1;aspect=fixed;" parent="1" vertex="1">
          <mxGeometry x="320" y="80" width="120" height="120" as="geometry" />
        </mxCell>
        <mxCell id="8NEK74VxoEMSqOfzrdbr-27" style="edgeStyle=orthogonalEdgeStyle;rounded=0;orthogonalLoop=1;jettySize=auto;html=1;" parent="1" edge="1">
          <mxGeometry relative="1" as="geometry">
            <mxPoint x="480" y="638" as="targetPoint" />
            <Array as="points">
              <mxPoint x="380" y="520" />
              <mxPoint x="380" y="560" />
              <mxPoint x="480" y="560" />
            </Array>
            <mxPoint x="380" y="450" as="sourcePoint" />
          </mxGeometry>
        </mxCell>
        <mxCell id="8NEK74VxoEMSqOfzrdbr-34" style="edgeStyle=orthogonalEdgeStyle;rounded=0;orthogonalLoop=1;jettySize=auto;html=1;" parent="1" target="8NEK74VxoEMSqOfzrdbr-31" edge="1">
          <mxGeometry relative="1" as="geometry">
            <Array as="points">
              <mxPoint x="380" y="200" />
              <mxPoint x="380" y="560" />
              <mxPoint x="280" y="560" />
            </Array>
            <mxPoint x="380" y="200" as="sourcePoint" />
          </mxGeometry>
        </mxCell>
        <mxCell id="sipO7en-5Wxk_V7Xx41A-1" value="prefer" style="edgeLabel;html=1;align=center;verticalAlign=middle;resizable=0;points=[];" parent="8NEK74VxoEMSqOfzrdbr-34" vertex="1" connectable="0">
          <mxGeometry x="-0.2537" y="-2" relative="1" as="geometry">
            <mxPoint x="2" y="-2" as="offset" />
          </mxGeometry>
        </mxCell>
        <mxCell id="4s1ClKieDDgsjrppkfxK-23" style="edgeStyle=orthogonalEdgeStyle;rounded=0;orthogonalLoop=1;jettySize=auto;html=1;" parent="1" source="4s1ClKieDDgsjrppkfxK-3" target="4s1ClKieDDgsjrppkfxK-3" edge="1">
          <mxGeometry relative="1" as="geometry">
            <Array as="points">
              <mxPoint x="430" y="40" />
              <mxPoint x="520" y="40" />
              <mxPoint x="520" y="110" />
            </Array>
          </mxGeometry>
        </mxCell>
        <mxCell id="4s1ClKieDDgsjrppkfxK-24" value="follow" style="edgeLabel;html=1;align=center;verticalAlign=middle;resizable=0;points=[];" parent="4s1ClKieDDgsjrppkfxK-23" vertex="1" connectable="0">
          <mxGeometry x="-0.3611" relative="1" as="geometry">
            <mxPoint as="offset" />
          </mxGeometry>
        </mxCell>
        <mxCell id="4s1ClKieDDgsjrppkfxK-25" value="N" style="text;html=1;align=center;verticalAlign=middle;resizable=0;points=[];autosize=1;strokeColor=none;fillColor=none;" parent="1" vertex="1">
          <mxGeometry x="440" y="80" width="30" height="30" as="geometry" />
        </mxCell>
        <mxCell id="4s1ClKieDDgsjrppkfxK-26" value="M" style="text;html=1;align=center;verticalAlign=middle;resizable=0;points=[];autosize=1;strokeColor=none;fillColor=none;" parent="1" vertex="1">
          <mxGeometry x="430" y="50" width="30" height="30" as="geometry" />
        </mxCell>
        <mxCell id="GThQmQhLFCTQQV7Pg5cc-3" value="" style="edgeStyle=orthogonalEdgeStyle;rounded=0;orthogonalLoop=1;jettySize=auto;html=1;shape=link;" parent="1" source="GThQmQhLFCTQQV7Pg5cc-1" target="GThQmQhLFCTQQV7Pg5cc-2" edge="1">
          <mxGeometry relative="1" as="geometry" />
        </mxCell>
        <mxCell id="GThQmQhLFCTQQV7Pg5cc-1" value="&lt;b&gt;POST&lt;/b&gt;" style="whiteSpace=wrap;html=1;aspect=fixed;" parent="1" vertex="1">
          <mxGeometry x="-60" y="80" width="120" height="120" as="geometry" />
        </mxCell>
        <mxCell id="8NEK74VxoEMSqOfzrdbr-2" style="edgeStyle=orthogonalEdgeStyle;rounded=0;orthogonalLoop=1;jettySize=auto;html=1;entryX=0.5;entryY=0;entryDx=0;entryDy=0;" parent="1" source="GThQmQhLFCTQQV7Pg5cc-2" target="c36HU47xG_umL8m3f9rB-1" edge="1">
          <mxGeometry relative="1" as="geometry" />
        </mxCell>
        <mxCell id="8NEK74VxoEMSqOfzrdbr-3" style="edgeStyle=orthogonalEdgeStyle;rounded=0;orthogonalLoop=1;jettySize=auto;html=1;entryX=0.5;entryY=0;entryDx=0;entryDy=0;" parent="1" source="GThQmQhLFCTQQV7Pg5cc-2" target="GThQmQhLFCTQQV7Pg5cc-4" edge="1">
          <mxGeometry relative="1" as="geometry" />
        </mxCell>
        <mxCell id="8NEK74VxoEMSqOfzrdbr-4" style="edgeStyle=orthogonalEdgeStyle;rounded=0;orthogonalLoop=1;jettySize=auto;html=1;entryX=0.5;entryY=0;entryDx=0;entryDy=0;" parent="1" source="GThQmQhLFCTQQV7Pg5cc-2" target="8NEK74VxoEMSqOfzrdbr-1" edge="1">
          <mxGeometry relative="1" as="geometry" />
        </mxCell>
        <mxCell id="GThQmQhLFCTQQV7Pg5cc-2" value="d" style="ellipse;whiteSpace=wrap;html=1;" parent="1" vertex="1">
          <mxGeometry x="-10" y="260" width="20" height="20" as="geometry" />
        </mxCell>
        <mxCell id="GThQmQhLFCTQQV7Pg5cc-4" value="&lt;b&gt;PLAYLIST&lt;/b&gt;" style="whiteSpace=wrap;html=1;aspect=fixed;" parent="1" vertex="1">
          <mxGeometry x="-60" y="420" width="120" height="120" as="geometry" />
        </mxCell>
        <mxCell id="c36HU47xG_umL8m3f9rB-1" value="&lt;b&gt;REVIEW&lt;/b&gt;" style="whiteSpace=wrap;html=1;aspect=fixed;" parent="1" vertex="1">
          <mxGeometry x="-210" y="420" width="120" height="120" as="geometry" />
        </mxCell>
        <mxCell id="8NEK74VxoEMSqOfzrdbr-83" style="edgeStyle=orthogonalEdgeStyle;rounded=0;orthogonalLoop=1;jettySize=auto;html=1;" parent="1" source="8NEK74VxoEMSqOfzrdbr-1" target="8NEK74VxoEMSqOfzrdbr-39" edge="1">
          <mxGeometry relative="1" as="geometry">
            <Array as="points">
              <mxPoint x="150" y="900" />
            </Array>
          </mxGeometry>
        </mxCell>
        <mxCell id="8NEK74VxoEMSqOfzrdbr-84" value="tag" style="edgeLabel;html=1;align=center;verticalAlign=middle;resizable=0;points=[];" parent="8NEK74VxoEMSqOfzrdbr-83" vertex="1" connectable="0">
          <mxGeometry x="-0.2893" y="-2" relative="1" as="geometry">
            <mxPoint x="2" as="offset" />
          </mxGeometry>
        </mxCell>
        <mxCell id="8NEK74VxoEMSqOfzrdbr-1" value="&lt;span style=&quot;font-weight: 700;&quot;&gt;DISCUSSION&lt;/span&gt;&lt;div&gt;&lt;span style=&quot;font-weight: 700;&quot;&gt;ARTICLE&lt;/span&gt;&lt;/div&gt;&lt;div&gt;&lt;span style=&quot;font-weight: 700; background-color: initial;&quot;&gt;NEWS&lt;/span&gt;&lt;/div&gt;" style="whiteSpace=wrap;html=1;aspect=fixed;" parent="1" vertex="1">
          <mxGeometry x="90" y="420" width="120" height="120" as="geometry" />
        </mxCell>
        <mxCell id="8NEK74VxoEMSqOfzrdbr-8" value="1" style="text;html=1;align=center;verticalAlign=middle;resizable=0;points=[];autosize=1;strokeColor=none;fillColor=none;" parent="1" vertex="1">
          <mxGeometry x="290" y="140" width="30" height="30" as="geometry" />
        </mxCell>
        <mxCell id="8NEK74VxoEMSqOfzrdbr-9" value="M" style="text;html=1;align=center;verticalAlign=middle;resizable=0;points=[];autosize=1;strokeColor=none;fillColor=none;" parent="1" vertex="1">
          <mxGeometry x="60" y="140" width="30" height="30" as="geometry" />
        </mxCell>
        <mxCell id="8NEK74VxoEMSqOfzrdbr-10" value="&lt;b&gt;NOTIFICATION&lt;/b&gt;" style="whiteSpace=wrap;html=1;aspect=fixed;" parent="1" vertex="1">
          <mxGeometry x="415" y="-200" width="120" height="120" as="geometry" />
        </mxCell>
        <mxCell id="8NEK74VxoEMSqOfzrdbr-13" value="1" style="text;html=1;align=center;verticalAlign=middle;resizable=0;points=[];autosize=1;strokeColor=none;fillColor=none;" parent="1" vertex="1">
          <mxGeometry x="390" y="50" width="30" height="30" as="geometry" />
        </mxCell>
        <mxCell id="8NEK74VxoEMSqOfzrdbr-14" value="M" style="text;html=1;align=center;verticalAlign=middle;resizable=0;points=[];autosize=1;strokeColor=none;fillColor=none;" parent="1" vertex="1">
          <mxGeometry x="470" y="-80" width="30" height="30" as="geometry" />
        </mxCell>
        <mxCell id="8NEK74VxoEMSqOfzrdbr-15" value="&lt;b&gt;READING&lt;/b&gt;&lt;div&gt;&lt;b&gt;GOAL&lt;/b&gt;&lt;/div&gt;" style="whiteSpace=wrap;html=1;aspect=fixed;" parent="1" vertex="1">
          <mxGeometry x="640" y="80" width="120" height="120" as="geometry" />
        </mxCell>
        <mxCell id="8NEK74VxoEMSqOfzrdbr-18" value="1" style="text;html=1;align=center;verticalAlign=middle;resizable=0;points=[];autosize=1;strokeColor=none;fillColor=none;" parent="1" vertex="1">
          <mxGeometry x="440" y="110" width="30" height="30" as="geometry" />
        </mxCell>
        <mxCell id="LQWr-U_LsIcs9SF5jMXK-1" style="edgeStyle=orthogonalEdgeStyle;rounded=0;orthogonalLoop=1;jettySize=auto;html=1;entryX=0.502;entryY=0.012;entryDx=0;entryDy=0;exitX=0.75;exitY=1;exitDx=0;exitDy=0;entryPerimeter=0;" parent="1" source="4s1ClKieDDgsjrppkfxK-3" target="pcY8dI0Te4xGeL-Uylhj-11" edge="1">
          <mxGeometry relative="1" as="geometry">
            <mxPoint x="700" y="520" as="sourcePoint" />
            <Array as="points">
              <mxPoint x="410" y="360" />
              <mxPoint x="700" y="360" />
            </Array>
          </mxGeometry>
        </mxCell>
        <mxCell id="LQWr-U_LsIcs9SF5jMXK-2" value="collect" style="edgeLabel;html=1;align=center;verticalAlign=middle;resizable=0;points=[];" parent="LQWr-U_LsIcs9SF5jMXK-1" vertex="1" connectable="0">
          <mxGeometry x="-0.0328" y="-1" relative="1" as="geometry">
            <mxPoint as="offset" />
          </mxGeometry>
        </mxCell>
        <mxCell id="8NEK74VxoEMSqOfzrdbr-24" value="M" style="text;html=1;align=center;verticalAlign=middle;resizable=0;points=[];autosize=1;strokeColor=none;fillColor=none;" parent="1" vertex="1">
          <mxGeometry x="610" y="110" width="30" height="30" as="geometry" />
        </mxCell>
        <mxCell id="8NEK74VxoEMSqOfzrdbr-26" value="&lt;b&gt;GENRE&lt;/b&gt;" style="whiteSpace=wrap;html=1;aspect=fixed;" parent="1" vertex="1">
          <mxGeometry x="400" y="640" width="120" height="120" as="geometry" />
        </mxCell>
        <mxCell id="8NEK74VxoEMSqOfzrdbr-29" value="1" style="text;html=1;align=center;verticalAlign=middle;resizable=0;points=[];autosize=1;strokeColor=none;fillColor=none;" parent="1" vertex="1">
          <mxGeometry x="290" y="980" width="30" height="30" as="geometry" />
        </mxCell>
        <mxCell id="8NEK74VxoEMSqOfzrdbr-31" value="&lt;b&gt;AUTHOR&lt;/b&gt;" style="whiteSpace=wrap;html=1;aspect=fixed;" parent="1" vertex="1">
          <mxGeometry x="240" y="640" width="120" height="120" as="geometry" />
        </mxCell>
        <mxCell id="8NEK74VxoEMSqOfzrdbr-35" value="M" style="text;html=1;align=center;verticalAlign=middle;resizable=0;points=[];autosize=1;strokeColor=none;fillColor=none;" parent="1" vertex="1">
          <mxGeometry x="350" y="200" width="30" height="30" as="geometry" />
        </mxCell>
        <mxCell id="8NEK74VxoEMSqOfzrdbr-80" style="edgeStyle=orthogonalEdgeStyle;rounded=0;orthogonalLoop=1;jettySize=auto;html=1;entryX=0.5;entryY=1;entryDx=0;entryDy=0;" parent="1" source="8NEK74VxoEMSqOfzrdbr-39" target="c36HU47xG_umL8m3f9rB-1" edge="1">
          <mxGeometry relative="1" as="geometry">
            <Array as="points">
              <mxPoint x="-150" y="980" />
            </Array>
          </mxGeometry>
        </mxCell>
        <mxCell id="8NEK74VxoEMSqOfzrdbr-81" value="has" style="edgeLabel;html=1;align=center;verticalAlign=middle;resizable=0;points=[];" parent="8NEK74VxoEMSqOfzrdbr-80" vertex="1" connectable="0">
          <mxGeometry x="-0.4535" y="-1" relative="1" as="geometry">
            <mxPoint x="-1" as="offset" />
          </mxGeometry>
        </mxCell>
        <mxCell id="8NEK74VxoEMSqOfzrdbr-39" value="&lt;b&gt;BOOK&lt;/b&gt;" style="whiteSpace=wrap;html=1;aspect=fixed;" parent="1" vertex="1">
          <mxGeometry x="320" y="880" width="120" height="120" as="geometry" />
        </mxCell>
        <mxCell id="8NEK74VxoEMSqOfzrdbr-56" value="N" style="text;html=1;align=center;verticalAlign=middle;resizable=0;points=[];autosize=1;strokeColor=none;fillColor=none;" parent="1" vertex="1">
          <mxGeometry x="250" y="610" width="30" height="30" as="geometry" />
        </mxCell>
        <mxCell id="8NEK74VxoEMSqOfzrdbr-69" value="M" style="text;html=1;align=center;verticalAlign=middle;resizable=0;points=[];autosize=1;strokeColor=none;fillColor=none;" parent="1" vertex="1">
          <mxGeometry x="380" y="200" width="30" height="30" as="geometry" />
        </mxCell>
        <mxCell id="8NEK74VxoEMSqOfzrdbr-70" value="N" style="text;html=1;align=center;verticalAlign=middle;resizable=0;points=[];autosize=1;strokeColor=none;fillColor=none;" parent="1" vertex="1">
          <mxGeometry x="480" y="610" width="30" height="30" as="geometry" />
        </mxCell>
        <mxCell id="8NEK74VxoEMSqOfzrdbr-71" style="edgeStyle=orthogonalEdgeStyle;rounded=0;orthogonalLoop=1;jettySize=auto;html=1;" parent="1" source="8NEK74VxoEMSqOfzrdbr-31" edge="1">
          <mxGeometry relative="1" as="geometry">
            <mxPoint x="360" y="880" as="targetPoint" />
          </mxGeometry>
        </mxCell>
        <mxCell id="8NEK74VxoEMSqOfzrdbr-74" value="write" style="edgeLabel;html=1;align=center;verticalAlign=middle;resizable=0;points=[];" parent="8NEK74VxoEMSqOfzrdbr-71" vertex="1" connectable="0">
          <mxGeometry x="-0.0068" y="1" relative="1" as="geometry">
            <mxPoint as="offset" />
          </mxGeometry>
        </mxCell>
        <mxCell id="8NEK74VxoEMSqOfzrdbr-72" value="M" style="text;html=1;align=center;verticalAlign=middle;resizable=0;points=[];autosize=1;strokeColor=none;fillColor=none;" parent="1" vertex="1">
          <mxGeometry x="270" y="760" width="30" height="30" as="geometry" />
        </mxCell>
        <mxCell id="8NEK74VxoEMSqOfzrdbr-73" value="N" style="text;html=1;align=center;verticalAlign=middle;resizable=0;points=[];autosize=1;strokeColor=none;fillColor=none;" parent="1" vertex="1">
          <mxGeometry x="330" y="850" width="30" height="30" as="geometry" />
        </mxCell>
        <mxCell id="8NEK74VxoEMSqOfzrdbr-75" style="edgeStyle=orthogonalEdgeStyle;rounded=0;orthogonalLoop=1;jettySize=auto;html=1;" parent="1" source="8NEK74VxoEMSqOfzrdbr-26" target="8NEK74VxoEMSqOfzrdbr-39" edge="1">
          <mxGeometry relative="1" as="geometry">
            <Array as="points">
              <mxPoint x="460" y="820" />
              <mxPoint x="400" y="820" />
            </Array>
          </mxGeometry>
        </mxCell>
        <mxCell id="8NEK74VxoEMSqOfzrdbr-76" value="contain" style="edgeLabel;html=1;align=center;verticalAlign=middle;resizable=0;points=[];" parent="8NEK74VxoEMSqOfzrdbr-75" vertex="1" connectable="0">
          <mxGeometry y="1" relative="1" as="geometry">
            <mxPoint y="-1" as="offset" />
          </mxGeometry>
        </mxCell>
        <mxCell id="8NEK74VxoEMSqOfzrdbr-77" value="M" style="text;html=1;align=center;verticalAlign=middle;resizable=0;points=[];autosize=1;strokeColor=none;fillColor=none;" parent="1" vertex="1">
          <mxGeometry x="460" y="760" width="30" height="30" as="geometry" />
        </mxCell>
        <mxCell id="8NEK74VxoEMSqOfzrdbr-79" value="N" style="text;html=1;align=center;verticalAlign=middle;resizable=0;points=[];autosize=1;strokeColor=none;fillColor=none;" parent="1" vertex="1">
          <mxGeometry x="400" y="850" width="30" height="30" as="geometry" />
        </mxCell>
        <mxCell id="8NEK74VxoEMSqOfzrdbr-82" value="M" style="text;html=1;align=center;verticalAlign=middle;resizable=0;points=[];autosize=1;strokeColor=none;fillColor=none;" parent="1" vertex="1">
          <mxGeometry x="-180" y="540" width="30" height="30" as="geometry" />
        </mxCell>
        <mxCell id="8NEK74VxoEMSqOfzrdbr-85" value="M" style="text;html=1;align=center;verticalAlign=middle;resizable=0;points=[];autosize=1;strokeColor=none;fillColor=none;" parent="1" vertex="1">
          <mxGeometry x="120" y="540" width="30" height="30" as="geometry" />
        </mxCell>
        <mxCell id="8NEK74VxoEMSqOfzrdbr-86" value="N" style="text;html=1;align=center;verticalAlign=middle;resizable=0;points=[];autosize=1;strokeColor=none;fillColor=none;" parent="1" vertex="1">
          <mxGeometry x="290" y="900" width="30" height="30" as="geometry" />
        </mxCell>
        <mxCell id="pcY8dI0Te4xGeL-Uylhj-2" value="&lt;b&gt;COMMENT&lt;/b&gt;" style="whiteSpace=wrap;html=1;aspect=fixed;" parent="1" vertex="1">
          <mxGeometry x="120" y="-200" width="120" height="120" as="geometry" />
        </mxCell>
        <mxCell id="pcY8dI0Te4xGeL-Uylhj-7" style="edgeStyle=orthogonalEdgeStyle;rounded=0;orthogonalLoop=1;jettySize=auto;html=1;entryX=0;entryY=0.5;entryDx=0;entryDy=0;" parent="1" target="8NEK74VxoEMSqOfzrdbr-39" edge="1">
          <mxGeometry relative="1" as="geometry">
            <Array as="points">
              <mxPoint y="940" />
            </Array>
            <mxPoint y="540" as="sourcePoint" />
            <mxPoint x="170" y="940" as="targetPoint" />
          </mxGeometry>
        </mxCell>
        <mxCell id="pcY8dI0Te4xGeL-Uylhj-8" value="tag" style="edgeLabel;html=1;align=center;verticalAlign=middle;resizable=0;points=[];" parent="pcY8dI0Te4xGeL-Uylhj-7" vertex="1" connectable="0">
          <mxGeometry x="-0.2893" y="-2" relative="1" as="geometry">
            <mxPoint x="2" as="offset" />
          </mxGeometry>
        </mxCell>
        <mxCell id="pcY8dI0Te4xGeL-Uylhj-9" value="M" style="text;html=1;align=center;verticalAlign=middle;resizable=0;points=[];autosize=1;strokeColor=none;fillColor=none;" parent="1" vertex="1">
          <mxGeometry x="-30" y="540" width="30" height="30" as="geometry" />
        </mxCell>
        <mxCell id="pcY8dI0Te4xGeL-Uylhj-10" value="N" style="text;html=1;align=center;verticalAlign=middle;resizable=0;points=[];autosize=1;strokeColor=none;fillColor=none;" parent="1" vertex="1">
          <mxGeometry x="290" y="940" width="30" height="30" as="geometry" />
        </mxCell>
        <mxCell id="LQWr-U_LsIcs9SF5jMXK-6" style="edgeStyle=orthogonalEdgeStyle;rounded=0;orthogonalLoop=1;jettySize=auto;html=1;entryX=1;entryY=0.5;entryDx=0;entryDy=0;" parent="1" source="pcY8dI0Te4xGeL-Uylhj-11" target="8NEK74VxoEMSqOfzrdbr-39" edge="1">
          <mxGeometry relative="1" as="geometry">
            <Array as="points">
              <mxPoint x="700" y="940" />
            </Array>
          </mxGeometry>
        </mxCell>
        <mxCell id="LQWr-U_LsIcs9SF5jMXK-8" value="contain" style="edgeLabel;html=1;align=center;verticalAlign=middle;resizable=0;points=[];" parent="LQWr-U_LsIcs9SF5jMXK-6" vertex="1" connectable="0">
          <mxGeometry x="-0.6155" relative="1" as="geometry">
            <mxPoint as="offset" />
          </mxGeometry>
        </mxCell>
        <mxCell id="pcY8dI0Te4xGeL-Uylhj-11" value="&lt;b&gt;BOOK&lt;/b&gt;&lt;div&gt;&lt;b&gt;WITH&lt;/b&gt;&lt;/div&gt;&lt;div&gt;&lt;b&gt;STATUS&lt;/b&gt;&lt;/div&gt;" style="whiteSpace=wrap;html=1;aspect=fixed;" parent="1" vertex="1">
          <mxGeometry x="640" y="400" width="120" height="120" as="geometry" />
        </mxCell>
        <mxCell id="LQWr-U_LsIcs9SF5jMXK-5" value="M" style="text;html=1;align=center;verticalAlign=middle;resizable=0;points=[];autosize=1;strokeColor=none;fillColor=none;" parent="1" vertex="1">
          <mxGeometry x="700" y="370" width="30" height="30" as="geometry" />
        </mxCell>
        <mxCell id="LQWr-U_LsIcs9SF5jMXK-9" value="1" style="text;html=1;align=center;verticalAlign=middle;resizable=0;points=[];autosize=1;strokeColor=none;fillColor=none;" parent="1" vertex="1">
          <mxGeometry x="690" y="520" width="30" height="30" as="geometry" />
        </mxCell>
        <mxCell id="LQWr-U_LsIcs9SF5jMXK-10" value="1" style="text;html=1;align=center;verticalAlign=middle;resizable=0;points=[];autosize=1;strokeColor=none;fillColor=none;" parent="1" vertex="1">
          <mxGeometry x="440" y="940" width="30" height="30" as="geometry" />
        </mxCell>
        <mxCell id="LQWr-U_LsIcs9SF5jMXK-11" style="edgeStyle=orthogonalEdgeStyle;rounded=0;orthogonalLoop=1;jettySize=auto;html=1;entryX=0;entryY=0.5;entryDx=0;entryDy=0;" parent="1" source="pcY8dI0Te4xGeL-Uylhj-2" target="pcY8dI0Te4xGeL-Uylhj-2" edge="1">
          <mxGeometry relative="1" as="geometry">
            <Array as="points">
              <mxPoint x="180" y="-280" />
              <mxPoint x="60" y="-280" />
              <mxPoint x="60" y="-140" />
            </Array>
          </mxGeometry>
        </mxCell>
        <mxCell id="LQWr-U_LsIcs9SF5jMXK-12" value="is replied by" style="edgeLabel;html=1;align=center;verticalAlign=middle;resizable=0;points=[];" parent="LQWr-U_LsIcs9SF5jMXK-11" vertex="1" connectable="0">
          <mxGeometry x="0.2645" y="2" relative="1" as="geometry">
            <mxPoint as="offset" />
          </mxGeometry>
        </mxCell>
        <mxCell id="LQWr-U_LsIcs9SF5jMXK-13" value="1" style="text;html=1;align=center;verticalAlign=middle;resizable=0;points=[];autosize=1;strokeColor=none;fillColor=none;" parent="1" vertex="1">
          <mxGeometry x="150" y="-230" width="30" height="30" as="geometry" />
        </mxCell>
        <mxCell id="LQWr-U_LsIcs9SF5jMXK-14" value="M" style="text;html=1;align=center;verticalAlign=middle;resizable=0;points=[];autosize=1;strokeColor=none;fillColor=none;" parent="1" vertex="1">
          <mxGeometry x="90" y="-170" width="30" height="30" as="geometry" />
        </mxCell>
        <mxCell id="PgSwAJV7gxk6W6lqLk8H-1" style="edgeStyle=orthogonalEdgeStyle;rounded=0;orthogonalLoop=1;jettySize=auto;html=1;" parent="1" edge="1">
          <mxGeometry relative="1" as="geometry">
            <mxPoint x="59.99999999999977" y="110.00000000000021" as="targetPoint" />
            <mxPoint x="319.9999999999998" y="110.00000000000021" as="sourcePoint" />
            <Array as="points">
              <mxPoint x="130" y="109.99999999999999" />
              <mxPoint x="130" y="109.99999999999999" />
            </Array>
          </mxGeometry>
        </mxCell>
        <mxCell id="PgSwAJV7gxk6W6lqLk8H-2" value="like" style="edgeLabel;html=1;align=center;verticalAlign=middle;resizable=0;points=[];" parent="PgSwAJV7gxk6W6lqLk8H-1" vertex="1" connectable="0">
          <mxGeometry x="0.1063" relative="1" as="geometry">
            <mxPoint x="14" y="1" as="offset" />
          </mxGeometry>
        </mxCell>
        <mxCell id="PgSwAJV7gxk6W6lqLk8H-3" value="M" style="text;html=1;align=center;verticalAlign=middle;resizable=0;points=[];autosize=1;strokeColor=none;fillColor=none;" parent="1" vertex="1">
          <mxGeometry x="290" y="80" width="30" height="30" as="geometry" />
        </mxCell>
        <mxCell id="PgSwAJV7gxk6W6lqLk8H-4" value="N" style="text;html=1;align=center;verticalAlign=middle;resizable=0;points=[];autosize=1;strokeColor=none;fillColor=none;" parent="1" vertex="1">
          <mxGeometry x="60" y="80" width="30" height="30" as="geometry" />
        </mxCell>
        <mxCell id="6AD9x2pb8VKJx3hm1rA--2" value="" style="rhombus;whiteSpace=wrap;html=1;" parent="1" vertex="1">
          <mxGeometry x="160" y="-20" width="40" height="40" as="geometry" />
        </mxCell>
        <mxCell id="6AD9x2pb8VKJx3hm1rA--14" value="" style="endArrow=none;html=1;rounded=0;entryX=0.5;entryY=1;entryDx=0;entryDy=0;" parent="1" target="pcY8dI0Te4xGeL-Uylhj-2" edge="1">
          <mxGeometry width="50" height="50" relative="1" as="geometry">
            <mxPoint x="180" y="-20" as="sourcePoint" />
            <mxPoint x="230" y="-70" as="targetPoint" />
          </mxGeometry>
        </mxCell>
        <mxCell id="6AD9x2pb8VKJx3hm1rA--15" value="" style="endArrow=none;html=1;rounded=0;exitX=0.5;exitY=0;exitDx=0;exitDy=0;" parent="1" source="GThQmQhLFCTQQV7Pg5cc-1" edge="1">
          <mxGeometry width="50" height="50" relative="1" as="geometry">
            <mxPoint as="sourcePoint" />
            <mxPoint x="160" as="targetPoint" />
            <Array as="points">
              <mxPoint />
            </Array>
          </mxGeometry>
        </mxCell>
        <mxCell id="6AD9x2pb8VKJx3hm1rA--17" value="" style="endArrow=none;html=1;rounded=0;entryX=0.169;entryY=-0.005;entryDx=0;entryDy=0;entryPerimeter=0;" parent="1" target="4s1ClKieDDgsjrppkfxK-3" edge="1">
          <mxGeometry width="50" height="50" relative="1" as="geometry">
            <mxPoint x="200" as="sourcePoint" />
            <mxPoint x="335.96000000000004" y="80.83999999999992" as="targetPoint" />
            <Array as="points">
              <mxPoint x="340" />
            </Array>
          </mxGeometry>
        </mxCell>
        <mxCell id="6AD9x2pb8VKJx3hm1rA--20" value="M" style="text;html=1;align=center;verticalAlign=middle;resizable=0;points=[];autosize=1;strokeColor=none;fillColor=none;" parent="1" vertex="1">
          <mxGeometry x="180" y="-80" width="30" height="30" as="geometry" />
        </mxCell>
        <mxCell id="6AD9x2pb8VKJx3hm1rA--24" value="same user, same post: multiple comments&lt;div&gt;same user, same comment: 1 post&lt;/div&gt;&lt;div&gt;same post, same comment: 1 user&lt;/div&gt;" style="text;strokeColor=none;align=left;fillColor=none;html=1;verticalAlign=middle;whiteSpace=wrap;rounded=0;" parent="1" vertex="1">
          <mxGeometry x="-50" y="-50" width="360" height="30" as="geometry" />
        </mxCell>
        <mxCell id="jwLxr3oWN_hr1I1tOu5F-3" value="1" style="text;html=1;align=center;verticalAlign=middle;resizable=0;points=[];autosize=1;strokeColor=none;fillColor=none;" parent="1" vertex="1">
          <mxGeometry x="340" y="50" width="30" height="30" as="geometry" />
        </mxCell>
        <mxCell id="jwLxr3oWN_hr1I1tOu5F-4" value="1" style="text;html=1;align=center;verticalAlign=middle;resizable=0;points=[];autosize=1;strokeColor=none;fillColor=none;" parent="1" vertex="1">
          <mxGeometry y="50" width="30" height="30" as="geometry" />
        </mxCell>
        <mxCell id="53_jWm7kL3Ci9pdnlEcG-1" value="1" style="text;html=1;align=center;verticalAlign=middle;resizable=0;points=[];autosize=1;strokeColor=none;fillColor=none;" parent="1" vertex="1">
          <mxGeometry x="410" y="200" width="30" height="30" as="geometry" />
        </mxCell>
      </root>
    </mxGraphModel>
  </diagram>
  <diagram id="8hk4AqA1H6nHti40Ue7w" name="mapping digaram">
    <mxGraphModel dx="2350" dy="899" grid="1" gridSize="10" guides="1" tooltips="1" connect="1" arrows="1" fold="1" page="1" pageScale="1" pageWidth="850" pageHeight="1100" math="0" shadow="0">
      <root>
        <mxCell id="0" />
        <mxCell id="1" parent="0" />
        <mxCell id="K1AzTbD_H9sU_jomgqDq-1" value="&lt;font style=&quot;font-size: 20px;&quot;&gt;&lt;u&gt;Id&lt;/u&gt;&lt;/font&gt;" style="rounded=0;whiteSpace=wrap;html=1;align=left;" parent="1" vertex="1">
          <mxGeometry x="40" y="110" width="160" height="30" as="geometry" />
        </mxCell>
        <mxCell id="7GV9ZWq2t_iuLE2Z9yyz-3" value="&lt;font style=&quot;font-size: 20px;&quot;&gt;username&lt;/font&gt;" style="rounded=0;whiteSpace=wrap;html=1;align=left;" parent="1" vertex="1">
          <mxGeometry x="40" y="140" width="160" height="30" as="geometry" />
        </mxCell>
        <mxCell id="7GV9ZWq2t_iuLE2Z9yyz-4" value="&lt;font style=&quot;font-size: 20px;&quot;&gt;email&lt;/font&gt;" style="rounded=0;whiteSpace=wrap;html=1;align=left;" parent="1" vertex="1">
          <mxGeometry x="40" y="170" width="160" height="30" as="geometry" />
        </mxCell>
        <mxCell id="7GV9ZWq2t_iuLE2Z9yyz-5" value="&lt;font style=&quot;font-size: 20px;&quot;&gt;password&lt;/font&gt;" style="rounded=0;whiteSpace=wrap;html=1;align=left;" parent="1" vertex="1">
          <mxGeometry x="40" y="200" width="160" height="30" as="geometry" />
        </mxCell>
        <mxCell id="7GV9ZWq2t_iuLE2Z9yyz-6" value="&lt;font style=&quot;font-size: 20px;&quot;&gt;bio&lt;/font&gt;" style="rounded=0;whiteSpace=wrap;html=1;align=left;" parent="1" vertex="1">
          <mxGeometry x="40" y="230" width="160" height="30" as="geometry" />
        </mxCell>
        <mxCell id="9XdFbKFAFrV5P3uC3Gv6-1" value="&lt;font style=&quot;font-size: 20px;&quot;&gt;profilePicture&lt;/font&gt;" style="rounded=0;whiteSpace=wrap;html=1;align=left;" parent="1" vertex="1">
          <mxGeometry x="40" y="260" width="160" height="30" as="geometry" />
        </mxCell>
        <mxCell id="9XdFbKFAFrV5P3uC3Gv6-2" value="&lt;font style=&quot;font-size: 20px;&quot;&gt;profileCover&lt;/font&gt;" style="rounded=0;whiteSpace=wrap;html=1;align=left;" parent="1" vertex="1">
          <mxGeometry x="40" y="290" width="160" height="30" as="geometry" />
        </mxCell>
        <mxCell id="5qr38U-GEIx2L9ChFMa7-3" value="Entity" style="rounded=0;whiteSpace=wrap;html=1;fillColor=#d5e8d4;strokeColor=#82b366;" parent="1" vertex="1">
          <mxGeometry x="160" y="20" width="120" height="20" as="geometry" />
        </mxCell>
        <mxCell id="5qr38U-GEIx2L9ChFMa7-4" value="&lt;span style=&quot;font-size: 20px;&quot;&gt;User&lt;/span&gt;" style="rounded=0;whiteSpace=wrap;html=1;align=center;fillColor=#d5e8d4;strokeColor=#82b366;" parent="1" vertex="1">
          <mxGeometry x="40" y="80" width="160" height="30" as="geometry" />
        </mxCell>
        <mxCell id="5qr38U-GEIx2L9ChFMa7-5" value="&lt;u&gt;Primary Key&lt;/u&gt;" style="rounded=0;whiteSpace=wrap;html=1;" parent="1" vertex="1">
          <mxGeometry x="300" y="20" width="120" height="20" as="geometry" />
        </mxCell>
        <mxCell id="5qr38U-GEIx2L9ChFMa7-6" value="Foreign Key" style="rounded=0;whiteSpace=wrap;html=1;fillColor=#f8cecc;strokeColor=#b85450;" parent="1" vertex="1">
          <mxGeometry x="440" y="20" width="120" height="20" as="geometry" />
        </mxCell>
        <mxCell id="iRV-FvXwpHABhnni1GZy-1" value="&lt;font style=&quot;font-size: 17px;&quot;&gt;UserFavouriteAuthor&lt;/font&gt;" style="rounded=0;whiteSpace=wrap;html=1;align=center;fillColor=#d5e8d4;strokeColor=#82b366;" parent="1" vertex="1">
          <mxGeometry x="360" y="400" width="160" height="30" as="geometry" />
        </mxCell>
        <mxCell id="s6Cg-PXdehKBhB0wUCgS-2" style="edgeStyle=orthogonalEdgeStyle;rounded=0;orthogonalLoop=1;jettySize=auto;html=1;fillColor=#dae8fc;strokeColor=#6c8ebf;" parent="1" source="qjnb0DhrtW0l7rveZJAh-2" edge="1">
          <mxGeometry relative="1" as="geometry">
            <mxPoint x="200" y="120" as="targetPoint" />
            <Array as="points">
              <mxPoint x="280" y="445" />
              <mxPoint x="280" y="120" />
            </Array>
          </mxGeometry>
        </mxCell>
        <mxCell id="qjnb0DhrtW0l7rveZJAh-2" value="&lt;font style=&quot;font-size: 20px;&quot;&gt;&lt;u&gt;userId&lt;/u&gt;&lt;/font&gt;" style="rounded=0;whiteSpace=wrap;html=1;align=left;fillColor=#f8cecc;strokeColor=#b85450;" parent="1" vertex="1">
          <mxGeometry x="360" y="430" width="160" height="30" as="geometry" />
        </mxCell>
        <mxCell id="zloHKl4zV8Fo9Au8QnZq-1" value="&lt;span style=&quot;font-size: 20px;&quot;&gt;UserFollower&lt;/span&gt;" style="rounded=0;whiteSpace=wrap;html=1;align=center;fillColor=#d5e8d4;strokeColor=#82b366;" parent="1" vertex="1">
          <mxGeometry x="600" y="80" width="160" height="30" as="geometry" />
        </mxCell>
        <mxCell id="zloHKl4zV8Fo9Au8QnZq-5" style="edgeStyle=orthogonalEdgeStyle;rounded=0;orthogonalLoop=1;jettySize=auto;html=1;fillColor=#dae8fc;strokeColor=#6c8ebf;" parent="1" source="zloHKl4zV8Fo9Au8QnZq-2" target="K1AzTbD_H9sU_jomgqDq-1" edge="1">
          <mxGeometry relative="1" as="geometry">
            <Array as="points">
              <mxPoint x="580" y="135" />
              <mxPoint x="580" y="50" />
              <mxPoint x="240" y="50" />
              <mxPoint x="240" y="120" />
            </Array>
          </mxGeometry>
        </mxCell>
        <mxCell id="zloHKl4zV8Fo9Au8QnZq-2" value="&lt;font size=&quot;1&quot; style=&quot;&quot;&gt;&lt;u style=&quot;font-size: 12px;&quot;&gt;userId(followed by follower)&lt;/u&gt;&lt;/font&gt;" style="rounded=0;whiteSpace=wrap;html=1;align=left;fillColor=#f8cecc;strokeColor=#b85450;" parent="1" vertex="1">
          <mxGeometry x="600" y="110" width="160" height="30" as="geometry" />
        </mxCell>
        <mxCell id="zloHKl4zV8Fo9Au8QnZq-6" style="edgeStyle=orthogonalEdgeStyle;rounded=0;orthogonalLoop=1;jettySize=auto;html=1;fillColor=#dae8fc;strokeColor=#6c8ebf;" parent="1" source="zloHKl4zV8Fo9Au8QnZq-3" edge="1">
          <mxGeometry relative="1" as="geometry">
            <Array as="points">
              <mxPoint x="560" y="155" />
              <mxPoint x="560" y="70" />
              <mxPoint x="260" y="70" />
              <mxPoint x="260" y="120" />
            </Array>
            <mxPoint x="200" y="120" as="targetPoint" />
          </mxGeometry>
        </mxCell>
        <mxCell id="zloHKl4zV8Fo9Au8QnZq-3" value="&lt;font style=&quot;font-size: 20px;&quot;&gt;&lt;u&gt;followerId&lt;/u&gt;&lt;/font&gt;" style="rounded=0;whiteSpace=wrap;html=1;align=left;fillColor=#f8cecc;strokeColor=#b85450;" parent="1" vertex="1">
          <mxGeometry x="600" y="140" width="160" height="30" as="geometry" />
        </mxCell>
        <mxCell id="DgRUIEswEHwKN613CKbX-1" value="&lt;span style=&quot;font-size: 20px;&quot;&gt;Post&lt;/span&gt;" style="rounded=0;whiteSpace=wrap;html=1;align=center;fillColor=#d5e8d4;strokeColor=#82b366;" parent="1" vertex="1">
          <mxGeometry x="-220" y="400" width="160" height="30" as="geometry" />
        </mxCell>
        <mxCell id="DgRUIEswEHwKN613CKbX-2" value="&lt;font style=&quot;font-size: 20px;&quot;&gt;&lt;u&gt;Id&lt;/u&gt;&lt;/font&gt;" style="rounded=0;whiteSpace=wrap;html=1;align=left;" parent="1" vertex="1">
          <mxGeometry x="-220" y="430" width="160" height="30" as="geometry" />
        </mxCell>
        <mxCell id="DgRUIEswEHwKN613CKbX-5" style="edgeStyle=orthogonalEdgeStyle;rounded=0;orthogonalLoop=1;jettySize=auto;html=1;" parent="1" source="DgRUIEswEHwKN613CKbX-4" edge="1">
          <mxGeometry relative="1" as="geometry">
            <mxPoint x="40" y="120" as="targetPoint" />
            <Array as="points">
              <mxPoint x="-280" y="475" />
              <mxPoint x="-280" y="120" />
            </Array>
          </mxGeometry>
        </mxCell>
        <mxCell id="DgRUIEswEHwKN613CKbX-4" value="&lt;span style=&quot;font-size: 20px;&quot;&gt;userId&lt;/span&gt;" style="rounded=0;whiteSpace=wrap;html=1;align=left;fillColor=#f8cecc;strokeColor=#b85450;" parent="1" vertex="1">
          <mxGeometry x="-220" y="460" width="160" height="30" as="geometry" />
        </mxCell>
        <mxCell id="DgRUIEswEHwKN613CKbX-6" value="&lt;font style=&quot;font-size: 20px;&quot;&gt;title&lt;/font&gt;" style="rounded=0;whiteSpace=wrap;html=1;align=left;" parent="1" vertex="1">
          <mxGeometry x="-220" y="490" width="160" height="30" as="geometry" />
        </mxCell>
        <mxCell id="DgRUIEswEHwKN613CKbX-7" value="&lt;font style=&quot;font-size: 20px;&quot;&gt;text&lt;/font&gt;" style="rounded=0;whiteSpace=wrap;html=1;align=left;" parent="1" vertex="1">
          <mxGeometry x="-220" y="520" width="160" height="30" as="geometry" />
        </mxCell>
        <mxCell id="DgRUIEswEHwKN613CKbX-8" value="&lt;font style=&quot;font-size: 20px;&quot;&gt;numberOfLikes&lt;/font&gt;" style="rounded=0;whiteSpace=wrap;html=1;align=left;" parent="1" vertex="1">
          <mxGeometry x="-220" y="550" width="160" height="30" as="geometry" />
        </mxCell>
        <mxCell id="DgRUIEswEHwKN613CKbX-9" value="&lt;span style=&quot;font-size: 20px;&quot;&gt;Notification&lt;/span&gt;" style="rounded=0;whiteSpace=wrap;html=1;align=center;fillColor=#d5e8d4;strokeColor=#82b366;" parent="1" vertex="1">
          <mxGeometry x="40" y="400" width="160" height="30" as="geometry" />
        </mxCell>
        <mxCell id="DgRUIEswEHwKN613CKbX-10" value="&lt;font style=&quot;font-size: 20px;&quot;&gt;&lt;u&gt;Id&lt;/u&gt;&lt;/font&gt;" style="rounded=0;whiteSpace=wrap;html=1;align=left;" parent="1" vertex="1">
          <mxGeometry x="40" y="430" width="160" height="30" as="geometry" />
        </mxCell>
        <mxCell id="DgRUIEswEHwKN613CKbX-13" style="edgeStyle=orthogonalEdgeStyle;rounded=0;orthogonalLoop=1;jettySize=auto;html=1;" parent="1" source="DgRUIEswEHwKN613CKbX-11" target="K1AzTbD_H9sU_jomgqDq-1" edge="1">
          <mxGeometry relative="1" as="geometry">
            <Array as="points">
              <mxPoint x="10" y="475" />
              <mxPoint x="10" y="120" />
            </Array>
          </mxGeometry>
        </mxCell>
        <mxCell id="DgRUIEswEHwKN613CKbX-11" value="&lt;span style=&quot;font-size: 20px;&quot;&gt;receiverId&lt;/span&gt;" style="rounded=0;whiteSpace=wrap;html=1;align=left;fillColor=#f8cecc;strokeColor=#b85450;" parent="1" vertex="1">
          <mxGeometry x="40" y="460" width="160" height="30" as="geometry" />
        </mxCell>
        <mxCell id="DgRUIEswEHwKN613CKbX-14" style="edgeStyle=orthogonalEdgeStyle;rounded=0;orthogonalLoop=1;jettySize=auto;html=1;entryX=1;entryY=0.5;entryDx=0;entryDy=0;" parent="1" source="DgRUIEswEHwKN613CKbX-12" target="DgRUIEswEHwKN613CKbX-2" edge="1">
          <mxGeometry relative="1" as="geometry" />
        </mxCell>
        <mxCell id="DgRUIEswEHwKN613CKbX-12" value="&lt;span style=&quot;font-size: 20px;&quot;&gt;postId&lt;/span&gt;" style="rounded=0;whiteSpace=wrap;html=1;align=left;fillColor=#f8cecc;strokeColor=#b85450;" parent="1" vertex="1">
          <mxGeometry x="40" y="490" width="160" height="30" as="geometry" />
        </mxCell>
        <mxCell id="W_Vbjk2p0NzEvALZjYOe-1" value="&lt;span style=&quot;font-size: 20px;&quot;&gt;message&lt;/span&gt;" style="rounded=0;whiteSpace=wrap;html=1;align=left;" parent="1" vertex="1">
          <mxGeometry x="40" y="520" width="160" height="30" as="geometry" />
        </mxCell>
        <mxCell id="W_Vbjk2p0NzEvALZjYOe-2" value="&lt;span style=&quot;font-size: 20px;&quot;&gt;isAck&lt;/span&gt;" style="rounded=0;whiteSpace=wrap;html=1;align=left;" parent="1" vertex="1">
          <mxGeometry x="40" y="550" width="160" height="30" as="geometry" />
        </mxCell>
        <mxCell id="W_Vbjk2p0NzEvALZjYOe-3" value="&lt;span style=&quot;font-size: 20px;&quot;&gt;createdDate&lt;/span&gt;" style="rounded=0;whiteSpace=wrap;html=1;align=left;" parent="1" vertex="1">
          <mxGeometry x="40" y="580" width="160" height="30" as="geometry" />
        </mxCell>
        <mxCell id="W_Vbjk2p0NzEvALZjYOe-4" value="&lt;span style=&quot;font-size: 20px;&quot;&gt;deletionDate(calc)&lt;/span&gt;" style="rounded=0;whiteSpace=wrap;html=1;align=left;" parent="1" vertex="1">
          <mxGeometry x="40" y="610" width="160" height="30" as="geometry" />
        </mxCell>
        <mxCell id="8WybYHAzW8_A9UPUxxqk-1" value="&lt;span style=&quot;font-size: 20px;&quot;&gt;BookWithStatus&lt;/span&gt;" style="rounded=0;whiteSpace=wrap;html=1;align=center;fillColor=#d5e8d4;strokeColor=#82b366;" parent="1" vertex="1">
          <mxGeometry x="-490" y="400" width="160" height="30" as="geometry" />
        </mxCell>
        <mxCell id="8WybYHAzW8_A9UPUxxqk-4" style="edgeStyle=orthogonalEdgeStyle;rounded=0;orthogonalLoop=1;jettySize=auto;html=1;fillColor=#dae8fc;strokeColor=#6c8ebf;" parent="1" source="8WybYHAzW8_A9UPUxxqk-2" edge="1">
          <mxGeometry relative="1" as="geometry">
            <mxPoint x="40.28063322368421" y="120" as="targetPoint" />
            <Array as="points">
              <mxPoint x="-280" y="445" />
              <mxPoint x="-280" y="120" />
            </Array>
          </mxGeometry>
        </mxCell>
        <mxCell id="8WybYHAzW8_A9UPUxxqk-2" value="&lt;span style=&quot;font-size: 20px;&quot;&gt;&lt;u&gt;userId&lt;/u&gt;&lt;/span&gt;" style="rounded=0;whiteSpace=wrap;html=1;align=left;fillColor=#f8cecc;strokeColor=#b85450;" parent="1" vertex="1">
          <mxGeometry x="-490" y="430" width="160" height="30" as="geometry" />
        </mxCell>
        <mxCell id="mPmDRW_TB5vqi5qOGWoL-2" style="edgeStyle=orthogonalEdgeStyle;rounded=0;orthogonalLoop=1;jettySize=auto;html=1;jumpStyle=arc;fillColor=#dae8fc;strokeColor=#6c8ebf;" parent="1" source="8WybYHAzW8_A9UPUxxqk-3" edge="1">
          <mxGeometry relative="1" as="geometry">
            <mxPoint x="480" y="1000" as="targetPoint" />
            <Array as="points">
              <mxPoint x="-310" y="475" />
              <mxPoint x="-310" y="650" />
              <mxPoint x="270" y="650" />
              <mxPoint x="270" y="1000" />
            </Array>
          </mxGeometry>
        </mxCell>
        <mxCell id="8WybYHAzW8_A9UPUxxqk-3" value="&lt;span style=&quot;font-size: 20px;&quot;&gt;&lt;u&gt;bookId&lt;/u&gt;&lt;/span&gt;" style="rounded=0;whiteSpace=wrap;html=1;align=left;fillColor=#f8cecc;strokeColor=#b85450;" parent="1" vertex="1">
          <mxGeometry x="-490" y="460" width="160" height="30" as="geometry" />
        </mxCell>
        <mxCell id="8WybYHAzW8_A9UPUxxqk-5" value="&lt;span style=&quot;font-size: 20px;&quot;&gt;date&lt;/span&gt;" style="rounded=0;whiteSpace=wrap;html=1;align=left;fontStyle=0;" parent="1" vertex="1">
          <mxGeometry x="-490" y="490" width="160" height="30" as="geometry" />
        </mxCell>
        <mxCell id="8WybYHAzW8_A9UPUxxqk-6" value="&lt;span style=&quot;font-size: 20px;&quot;&gt;status&lt;/span&gt;" style="rounded=0;whiteSpace=wrap;html=1;align=left;fontStyle=0;" parent="1" vertex="1">
          <mxGeometry x="-490" y="520" width="160" height="30" as="geometry" />
        </mxCell>
        <mxCell id="lreYmfCwbLtl4y2CQUq5-1" value="&lt;span style=&quot;font-size: 20px;&quot;&gt;ReadingGoal&lt;/span&gt;" style="rounded=0;whiteSpace=wrap;html=1;align=center;fillColor=#d5e8d4;strokeColor=#82b366;" parent="1" vertex="1">
          <mxGeometry x="360" y="120" width="160" height="30" as="geometry" />
        </mxCell>
        <mxCell id="lreYmfCwbLtl4y2CQUq5-2" value="&lt;font style=&quot;font-size: 14px;&quot;&gt;numberOfBooksToRead&lt;/font&gt;" style="rounded=0;whiteSpace=wrap;html=1;align=left;" parent="1" vertex="1">
          <mxGeometry x="360" y="180" width="160" height="30" as="geometry" />
        </mxCell>
        <mxCell id="lreYmfCwbLtl4y2CQUq5-4" value="&lt;font style=&quot;font-size: 20px;&quot;&gt;startingDate&lt;/font&gt;" style="rounded=0;whiteSpace=wrap;html=1;align=left;" parent="1" vertex="1">
          <mxGeometry x="360" y="210" width="160" height="30" as="geometry" />
        </mxCell>
        <mxCell id="lreYmfCwbLtl4y2CQUq5-5" value="&lt;font style=&quot;font-size: 20px;&quot;&gt;duration&lt;/font&gt;" style="rounded=0;whiteSpace=wrap;html=1;align=left;" parent="1" vertex="1">
          <mxGeometry x="360" y="240" width="160" height="30" as="geometry" />
        </mxCell>
        <mxCell id="VLLqBHgywMcUNND4BvgC-1" value="&lt;font style=&quot;font-size: 20px;&quot;&gt;&lt;u&gt;Id&lt;/u&gt;&lt;/font&gt;" style="rounded=0;whiteSpace=wrap;html=1;align=left;" parent="1" vertex="1">
          <mxGeometry x="360" y="150" width="160" height="30" as="geometry" />
        </mxCell>
        <mxCell id="VLLqBHgywMcUNND4BvgC-3" style="edgeStyle=orthogonalEdgeStyle;rounded=0;orthogonalLoop=1;jettySize=auto;html=1;fillColor=#dae8fc;strokeColor=#6c8ebf;" parent="1" source="VLLqBHgywMcUNND4BvgC-2" edge="1">
          <mxGeometry relative="1" as="geometry">
            <mxPoint x="200" y="120" as="targetPoint" />
            <Array as="points">
              <mxPoint x="280" y="285" />
              <mxPoint x="280" y="120" />
              <mxPoint x="200" y="120" />
            </Array>
          </mxGeometry>
        </mxCell>
        <mxCell id="VLLqBHgywMcUNND4BvgC-2" value="&lt;font style=&quot;font-size: 20px;&quot;&gt;userId&lt;/font&gt;" style="rounded=0;whiteSpace=wrap;html=1;align=left;fillColor=#f8cecc;strokeColor=#b85450;textShadow=0;" parent="1" vertex="1">
          <mxGeometry x="360" y="270" width="160" height="30" as="geometry" />
        </mxCell>
        <mxCell id="C0SMigAcJGD_ey_Ts0TP-1" value="&lt;span style=&quot;font-size: 20px;&quot;&gt;Author&lt;/span&gt;" style="rounded=0;whiteSpace=wrap;html=1;align=center;fillColor=#d5e8d4;strokeColor=#82b366;" parent="1" vertex="1">
          <mxGeometry x="400" y="640" width="160" height="30" as="geometry" />
        </mxCell>
        <mxCell id="C0SMigAcJGD_ey_Ts0TP-2" value="&lt;span style=&quot;font-size: 20px;&quot;&gt;Genre&lt;/span&gt;" style="rounded=0;whiteSpace=wrap;html=1;align=center;fillColor=#d5e8d4;strokeColor=#82b366;" parent="1" vertex="1">
          <mxGeometry x="600" y="640" width="160" height="30" as="geometry" />
        </mxCell>
        <mxCell id="s6Cg-PXdehKBhB0wUCgS-10" style="edgeStyle=orthogonalEdgeStyle;rounded=0;orthogonalLoop=1;jettySize=auto;html=1;entryX=0;entryY=0.5;entryDx=0;entryDy=0;fillColor=#dae8fc;strokeColor=#6c8ebf;" parent="1" source="s6Cg-PXdehKBhB0wUCgS-1" target="s6Cg-PXdehKBhB0wUCgS-4" edge="1">
          <mxGeometry relative="1" as="geometry">
            <Array as="points">
              <mxPoint x="280" y="475" />
              <mxPoint x="280" y="685" />
            </Array>
          </mxGeometry>
        </mxCell>
        <mxCell id="s6Cg-PXdehKBhB0wUCgS-1" value="&lt;font style=&quot;font-size: 20px;&quot;&gt;&lt;u&gt;authorId&lt;/u&gt;&lt;/font&gt;" style="rounded=0;whiteSpace=wrap;html=1;align=left;fillColor=#f8cecc;strokeColor=#b85450;" parent="1" vertex="1">
          <mxGeometry x="360" y="460" width="160" height="30" as="geometry" />
        </mxCell>
        <mxCell id="s6Cg-PXdehKBhB0wUCgS-4" value="&lt;font style=&quot;font-size: 20px;&quot;&gt;&lt;u&gt;Id&lt;/u&gt;&lt;/font&gt;" style="rounded=0;whiteSpace=wrap;html=1;align=left;" parent="1" vertex="1">
          <mxGeometry x="400" y="670" width="160" height="30" as="geometry" />
        </mxCell>
        <mxCell id="s6Cg-PXdehKBhB0wUCgS-5" value="&lt;font style=&quot;font-size: 20px;&quot;&gt;&lt;u&gt;Id&lt;/u&gt;&lt;/font&gt;" style="rounded=0;whiteSpace=wrap;html=1;align=left;" parent="1" vertex="1">
          <mxGeometry x="600" y="670" width="160" height="30" as="geometry" />
        </mxCell>
        <mxCell id="s6Cg-PXdehKBhB0wUCgS-6" value="&lt;font style=&quot;font-size: 17px;&quot;&gt;UserFavouriteGenre&lt;/font&gt;" style="rounded=0;whiteSpace=wrap;html=1;align=center;fillColor=#d5e8d4;strokeColor=#82b366;" parent="1" vertex="1">
          <mxGeometry x="600" y="400" width="160" height="30" as="geometry" />
        </mxCell>
        <mxCell id="s6Cg-PXdehKBhB0wUCgS-9" style="edgeStyle=orthogonalEdgeStyle;rounded=0;orthogonalLoop=1;jettySize=auto;html=1;fillColor=#dae8fc;strokeColor=#6c8ebf;" parent="1" source="s6Cg-PXdehKBhB0wUCgS-7" edge="1">
          <mxGeometry relative="1" as="geometry">
            <mxPoint x="200" y="120" as="targetPoint" />
            <Array as="points">
              <mxPoint x="580" y="445" />
              <mxPoint x="580" y="380" />
              <mxPoint x="280" y="380" />
              <mxPoint x="280" y="120" />
            </Array>
          </mxGeometry>
        </mxCell>
        <mxCell id="s6Cg-PXdehKBhB0wUCgS-7" value="&lt;font style=&quot;font-size: 20px;&quot;&gt;&lt;u&gt;userId&lt;/u&gt;&lt;/font&gt;" style="rounded=0;whiteSpace=wrap;html=1;align=left;fillColor=#f8cecc;strokeColor=#b85450;" parent="1" vertex="1">
          <mxGeometry x="600" y="430" width="160" height="30" as="geometry" />
        </mxCell>
        <mxCell id="s6Cg-PXdehKBhB0wUCgS-11" style="edgeStyle=orthogonalEdgeStyle;rounded=0;orthogonalLoop=1;jettySize=auto;html=1;entryX=0;entryY=0.5;entryDx=0;entryDy=0;fillColor=#dae8fc;strokeColor=#6c8ebf;" parent="1" source="s6Cg-PXdehKBhB0wUCgS-8" target="s6Cg-PXdehKBhB0wUCgS-5" edge="1">
          <mxGeometry relative="1" as="geometry">
            <Array as="points">
              <mxPoint x="580" y="475" />
              <mxPoint x="580" y="685" />
            </Array>
          </mxGeometry>
        </mxCell>
        <mxCell id="s6Cg-PXdehKBhB0wUCgS-8" value="&lt;font style=&quot;font-size: 20px;&quot;&gt;&lt;u&gt;genreId&lt;/u&gt;&lt;/font&gt;" style="rounded=0;whiteSpace=wrap;html=1;align=left;fillColor=#f8cecc;strokeColor=#b85450;" parent="1" vertex="1">
          <mxGeometry x="600" y="460" width="160" height="30" as="geometry" />
        </mxCell>
        <mxCell id="s6Cg-PXdehKBhB0wUCgS-12" value="&lt;span style=&quot;font-size: 20px;&quot;&gt;Book&lt;/span&gt;" style="rounded=0;whiteSpace=wrap;html=1;align=center;fillColor=#d5e8d4;strokeColor=#82b366;" parent="1" vertex="1">
          <mxGeometry x="480" y="960" width="160" height="30" as="geometry" />
        </mxCell>
        <mxCell id="s6Cg-PXdehKBhB0wUCgS-14" value="&lt;font style=&quot;font-size: 20px;&quot;&gt;&lt;u&gt;Id&lt;/u&gt;&lt;/font&gt;" style="rounded=0;whiteSpace=wrap;html=1;align=left;" parent="1" vertex="1">
          <mxGeometry x="480" y="990" width="160" height="30" as="geometry" />
        </mxCell>
        <mxCell id="s6Cg-PXdehKBhB0wUCgS-15" value="&lt;span style=&quot;font-size: 20px;&quot;&gt;image&lt;/span&gt;" style="rounded=0;whiteSpace=wrap;html=1;align=left;" parent="1" vertex="1">
          <mxGeometry x="480" y="1020" width="160" height="30" as="geometry" />
        </mxCell>
        <mxCell id="s6Cg-PXdehKBhB0wUCgS-16" value="&lt;span style=&quot;font-size: 20px;&quot;&gt;title&lt;/span&gt;" style="rounded=0;whiteSpace=wrap;html=1;align=left;" parent="1" vertex="1">
          <mxGeometry x="480" y="1050" width="160" height="30" as="geometry" />
        </mxCell>
        <mxCell id="s6Cg-PXdehKBhB0wUCgS-17" value="&lt;span style=&quot;font-size: 20px;&quot;&gt;description&lt;/span&gt;" style="rounded=0;whiteSpace=wrap;html=1;align=left;" parent="1" vertex="1">
          <mxGeometry x="480" y="1080" width="160" height="30" as="geometry" />
        </mxCell>
        <mxCell id="s6Cg-PXdehKBhB0wUCgS-18" value="&lt;span style=&quot;font-size: 20px;&quot;&gt;numberOfPages&lt;/span&gt;" style="rounded=0;whiteSpace=wrap;html=1;align=left;" parent="1" vertex="1">
          <mxGeometry x="480" y="1110" width="160" height="30" as="geometry" />
        </mxCell>
        <mxCell id="s6Cg-PXdehKBhB0wUCgS-19" value="&lt;span style=&quot;font-size: 20px;&quot;&gt;rate(calc)&lt;/span&gt;" style="rounded=0;whiteSpace=wrap;html=1;align=left;" parent="1" vertex="1">
          <mxGeometry x="480" y="1140" width="160" height="30" as="geometry" />
        </mxCell>
        <mxCell id="s6Cg-PXdehKBhB0wUCgS-21" value="&lt;span style=&quot;font-size: 20px;&quot;&gt;addedDate&lt;/span&gt;" style="rounded=0;whiteSpace=wrap;html=1;align=left;" parent="1" vertex="1">
          <mxGeometry x="480" y="1170" width="160" height="30" as="geometry" />
        </mxCell>
        <mxCell id="NsogHOD4TIi1YHtt4Kvc-1" value="&lt;span style=&quot;font-size: 20px;&quot;&gt;BookGenre&lt;/span&gt;" style="rounded=0;whiteSpace=wrap;html=1;align=center;fillColor=#d5e8d4;strokeColor=#82b366;" parent="1" vertex="1">
          <mxGeometry x="720" y="840" width="160" height="30" as="geometry" />
        </mxCell>
        <mxCell id="NsogHOD4TIi1YHtt4Kvc-7" style="edgeStyle=orthogonalEdgeStyle;rounded=0;orthogonalLoop=1;jettySize=auto;html=1;entryX=1;entryY=0.5;entryDx=0;entryDy=0;fillColor=#dae8fc;strokeColor=#6c8ebf;" parent="1" source="NsogHOD4TIi1YHtt4Kvc-2" target="s6Cg-PXdehKBhB0wUCgS-14" edge="1">
          <mxGeometry relative="1" as="geometry" />
        </mxCell>
        <mxCell id="NsogHOD4TIi1YHtt4Kvc-2" value="&lt;font style=&quot;font-size: 20px;&quot;&gt;&lt;u&gt;bookId&lt;/u&gt;&lt;/font&gt;" style="rounded=0;whiteSpace=wrap;html=1;align=left;fillColor=#f8cecc;strokeColor=#b85450;" parent="1" vertex="1">
          <mxGeometry x="720" y="870" width="160" height="30" as="geometry" />
        </mxCell>
        <mxCell id="NsogHOD4TIi1YHtt4Kvc-10" style="edgeStyle=orthogonalEdgeStyle;rounded=0;orthogonalLoop=1;jettySize=auto;html=1;entryX=1;entryY=0.5;entryDx=0;entryDy=0;fillColor=#dae8fc;strokeColor=#6c8ebf;" parent="1" source="NsogHOD4TIi1YHtt4Kvc-3" target="s6Cg-PXdehKBhB0wUCgS-5" edge="1">
          <mxGeometry relative="1" as="geometry">
            <Array as="points">
              <mxPoint x="890" y="915" />
              <mxPoint x="890" y="685" />
            </Array>
          </mxGeometry>
        </mxCell>
        <mxCell id="NsogHOD4TIi1YHtt4Kvc-3" value="&lt;font style=&quot;font-size: 20px;&quot;&gt;&lt;u&gt;genreId&lt;/u&gt;&lt;/font&gt;" style="rounded=0;whiteSpace=wrap;html=1;align=left;fillColor=#f8cecc;strokeColor=#b85450;" parent="1" vertex="1">
          <mxGeometry x="720" y="900" width="160" height="30" as="geometry" />
        </mxCell>
        <mxCell id="NsogHOD4TIi1YHtt4Kvc-4" value="&lt;span style=&quot;font-size: 20px;&quot;&gt;bookAuthor&lt;/span&gt;" style="rounded=0;whiteSpace=wrap;html=1;align=center;fillColor=#d5e8d4;strokeColor=#82b366;" parent="1" vertex="1">
          <mxGeometry x="290" y="840" width="160" height="30" as="geometry" />
        </mxCell>
        <mxCell id="NsogHOD4TIi1YHtt4Kvc-8" style="edgeStyle=orthogonalEdgeStyle;rounded=0;orthogonalLoop=1;jettySize=auto;html=1;fillColor=#dae8fc;strokeColor=#6c8ebf;" parent="1" source="NsogHOD4TIi1YHtt4Kvc-5" edge="1">
          <mxGeometry relative="1" as="geometry">
            <Array as="points">
              <mxPoint x="460" y="885" />
              <mxPoint x="460" y="1000" />
            </Array>
            <mxPoint x="480" y="1000" as="targetPoint" />
          </mxGeometry>
        </mxCell>
        <mxCell id="NsogHOD4TIi1YHtt4Kvc-5" value="&lt;font style=&quot;font-size: 20px;&quot;&gt;&lt;u&gt;bookId&lt;/u&gt;&lt;/font&gt;" style="rounded=0;whiteSpace=wrap;html=1;align=left;fillColor=#f8cecc;strokeColor=#b85450;" parent="1" vertex="1">
          <mxGeometry x="290" y="870" width="160" height="30" as="geometry" />
        </mxCell>
        <mxCell id="NsogHOD4TIi1YHtt4Kvc-9" style="edgeStyle=orthogonalEdgeStyle;rounded=0;orthogonalLoop=1;jettySize=auto;html=1;entryX=0;entryY=0.5;entryDx=0;entryDy=0;fillColor=#dae8fc;strokeColor=#6c8ebf;" parent="1" source="NsogHOD4TIi1YHtt4Kvc-6" target="s6Cg-PXdehKBhB0wUCgS-4" edge="1">
          <mxGeometry relative="1" as="geometry">
            <Array as="points">
              <mxPoint x="280" y="915" />
              <mxPoint x="280" y="685" />
            </Array>
          </mxGeometry>
        </mxCell>
        <mxCell id="NsogHOD4TIi1YHtt4Kvc-6" value="&lt;font style=&quot;font-size: 20px;&quot;&gt;&lt;u&gt;authorId&lt;/u&gt;&lt;/font&gt;" style="rounded=0;whiteSpace=wrap;html=1;align=left;fillColor=#f8cecc;strokeColor=#b85450;" parent="1" vertex="1">
          <mxGeometry x="290" y="900" width="160" height="30" as="geometry" />
        </mxCell>
        <mxCell id="NsogHOD4TIi1YHtt4Kvc-11" value="&lt;span style=&quot;font-size: 20px;&quot;&gt;Review&lt;/span&gt;" style="rounded=0;whiteSpace=wrap;html=1;align=center;fillColor=#d5e8d4;strokeColor=#82b366;" parent="1" vertex="1">
          <mxGeometry x="-160" y="710" width="160" height="30" as="geometry" />
        </mxCell>
        <mxCell id="NsogHOD4TIi1YHtt4Kvc-15" style="edgeStyle=orthogonalEdgeStyle;rounded=0;orthogonalLoop=1;jettySize=auto;html=1;entryX=1;entryY=0.5;entryDx=0;entryDy=0;" parent="1" source="NsogHOD4TIi1YHtt4Kvc-13" target="DgRUIEswEHwKN613CKbX-2" edge="1">
          <mxGeometry relative="1" as="geometry">
            <Array as="points">
              <mxPoint x="30" y="755" />
              <mxPoint x="30" y="530" />
              <mxPoint x="-10" y="530" />
              <mxPoint x="-10" y="445" />
            </Array>
          </mxGeometry>
        </mxCell>
        <mxCell id="NsogHOD4TIi1YHtt4Kvc-13" value="&lt;font style=&quot;font-size: 20px;&quot;&gt;&lt;u&gt;reviewId&lt;/u&gt;&lt;/font&gt;" style="rounded=0;whiteSpace=wrap;html=1;align=left;fillColor=#f8cecc;strokeColor=#b85450;" parent="1" vertex="1">
          <mxGeometry x="-160" y="740" width="160" height="30" as="geometry" />
        </mxCell>
        <mxCell id="NsogHOD4TIi1YHtt4Kvc-17" style="edgeStyle=orthogonalEdgeStyle;rounded=0;orthogonalLoop=1;jettySize=auto;html=1;" parent="1" source="NsogHOD4TIi1YHtt4Kvc-16" target="s6Cg-PXdehKBhB0wUCgS-14" edge="1">
          <mxGeometry relative="1" as="geometry">
            <Array as="points">
              <mxPoint x="10" y="785" />
              <mxPoint x="10" y="1000" />
            </Array>
          </mxGeometry>
        </mxCell>
        <mxCell id="NsogHOD4TIi1YHtt4Kvc-16" value="&lt;font style=&quot;font-size: 20px;&quot;&gt;bookId&lt;/font&gt;" style="rounded=0;whiteSpace=wrap;html=1;align=left;fillColor=#f8cecc;strokeColor=#b85450;" parent="1" vertex="1">
          <mxGeometry x="-160" y="770" width="160" height="30" as="geometry" />
        </mxCell>
        <mxCell id="NsogHOD4TIi1YHtt4Kvc-19" value="&lt;font style=&quot;font-size: 20px;&quot;&gt;rate&lt;/font&gt;" style="rounded=0;whiteSpace=wrap;html=1;align=left;" parent="1" vertex="1">
          <mxGeometry x="-160" y="800" width="160" height="30" as="geometry" />
        </mxCell>
        <mxCell id="lOQ9FkrNiBN728g6z-aP-1" value="&lt;span style=&quot;font-size: 20px;&quot;&gt;Comment&lt;/span&gt;" style="rounded=0;whiteSpace=wrap;html=1;align=center;fillColor=#d5e8d4;strokeColor=#82b366;" parent="1" vertex="1">
          <mxGeometry x="40" y="710" width="160" height="30" as="geometry" />
        </mxCell>
        <mxCell id="lOQ9FkrNiBN728g6z-aP-3" value="&lt;font style=&quot;font-size: 20px;&quot;&gt;&lt;u&gt;Id&lt;/u&gt;&lt;/font&gt;" style="rounded=0;whiteSpace=wrap;html=1;align=left;" parent="1" vertex="1">
          <mxGeometry x="40" y="740" width="160" height="30" as="geometry" />
        </mxCell>
        <mxCell id="lOQ9FkrNiBN728g6z-aP-7" style="edgeStyle=orthogonalEdgeStyle;rounded=0;orthogonalLoop=1;jettySize=auto;html=1;entryX=1;entryY=0.5;entryDx=0;entryDy=0;" parent="1" source="lOQ9FkrNiBN728g6z-aP-5" target="DgRUIEswEHwKN613CKbX-2" edge="1">
          <mxGeometry relative="1" as="geometry">
            <Array as="points">
              <mxPoint x="30" y="785" />
              <mxPoint x="30" y="530" />
              <mxPoint x="-10" y="530" />
              <mxPoint x="-10" y="445" />
            </Array>
          </mxGeometry>
        </mxCell>
        <mxCell id="lOQ9FkrNiBN728g6z-aP-5" value="&lt;span style=&quot;font-size: 20px;&quot;&gt;postId&lt;/span&gt;" style="rounded=0;whiteSpace=wrap;html=1;align=left;fillColor=#f8cecc;strokeColor=#b85450;" parent="1" vertex="1">
          <mxGeometry x="40" y="770" width="160" height="30" as="geometry" />
        </mxCell>
        <mxCell id="lOQ9FkrNiBN728g6z-aP-8" value="&lt;span style=&quot;font-size: 20px;&quot;&gt;createdDate&lt;/span&gt;" style="rounded=0;whiteSpace=wrap;html=1;align=left;fontStyle=0;" parent="1" vertex="1">
          <mxGeometry x="40" y="800" width="160" height="30" as="geometry" />
        </mxCell>
        <mxCell id="lOQ9FkrNiBN728g6z-aP-9" value="&lt;span style=&quot;font-size: 20px;&quot;&gt;numberOfLikes&lt;/span&gt;" style="rounded=0;whiteSpace=wrap;html=1;align=left;fontStyle=0;" parent="1" vertex="1">
          <mxGeometry x="40" y="830" width="160" height="30" as="geometry" />
        </mxCell>
        <mxCell id="mSDbeqq_iYj_MectFKEQ-3" value="&lt;font style=&quot;font-size: 15px;&quot;&gt;DiscussionArticleNews&lt;/font&gt;" style="rounded=0;whiteSpace=wrap;html=1;align=center;fillColor=#d5e8d4;strokeColor=#82b366;" parent="1" vertex="1">
          <mxGeometry x="-360" y="710" width="160" height="30" as="geometry" />
        </mxCell>
        <mxCell id="mSDbeqq_iYj_MectFKEQ-7" style="edgeStyle=orthogonalEdgeStyle;rounded=0;orthogonalLoop=1;jettySize=auto;html=1;entryX=1;entryY=0.5;entryDx=0;entryDy=0;jumpStyle=arc;" parent="1" source="mSDbeqq_iYj_MectFKEQ-4" target="DgRUIEswEHwKN613CKbX-2" edge="1">
          <mxGeometry relative="1" as="geometry">
            <mxPoint x="-30" y="608.8148328993055" as="targetPoint" />
            <Array as="points">
              <mxPoint x="-180" y="755" />
              <mxPoint x="-180" y="660" />
              <mxPoint x="30" y="660" />
              <mxPoint x="30" y="650" />
              <mxPoint x="30" y="530" />
              <mxPoint x="-10" y="530" />
              <mxPoint x="-10" y="445" />
            </Array>
          </mxGeometry>
        </mxCell>
        <mxCell id="mSDbeqq_iYj_MectFKEQ-4" value="&lt;span style=&quot;text-align: center;&quot;&gt;&lt;font style=&quot;font-size: 14px;&quot;&gt;&lt;u&gt;DiscussionArticleNewsId&lt;/u&gt;&lt;/font&gt;&lt;/span&gt;" style="rounded=0;whiteSpace=wrap;html=1;align=left;fillColor=#f8cecc;strokeColor=#b85450;" parent="1" vertex="1">
          <mxGeometry x="-360" y="740" width="160" height="30" as="geometry" />
        </mxCell>
        <mxCell id="mSDbeqq_iYj_MectFKEQ-6" value="&lt;font style=&quot;font-size: 20px;&quot;&gt;postTag&lt;/font&gt;" style="rounded=0;whiteSpace=wrap;html=1;align=left;" parent="1" vertex="1">
          <mxGeometry x="-360" y="770" width="160" height="30" as="geometry" />
        </mxCell>
        <mxCell id="mSDbeqq_iYj_MectFKEQ-8" value="&lt;font style=&quot;font-size: 12px;&quot;&gt;DiscussionArticleNewsBook&lt;/font&gt;" style="rounded=0;whiteSpace=wrap;html=1;align=center;fillColor=#d5e8d4;strokeColor=#82b366;" parent="1" vertex="1">
          <mxGeometry x="80" y="1100" width="160" height="30" as="geometry" />
        </mxCell>
        <mxCell id="mSDbeqq_iYj_MectFKEQ-14" style="edgeStyle=orthogonalEdgeStyle;rounded=0;orthogonalLoop=1;jettySize=auto;html=1;entryX=1;entryY=0.75;entryDx=0;entryDy=0;" parent="1" source="mSDbeqq_iYj_MectFKEQ-9" target="mSDbeqq_iYj_MectFKEQ-4" edge="1">
          <mxGeometry relative="1" as="geometry">
            <Array as="points">
              <mxPoint x="-170" y="1145" />
              <mxPoint x="-170" y="762" />
            </Array>
          </mxGeometry>
        </mxCell>
        <mxCell id="mSDbeqq_iYj_MectFKEQ-9" value="&lt;span style=&quot;text-align: center;&quot;&gt;&lt;font style=&quot;font-size: 14px;&quot;&gt;&lt;u&gt;DiscussionArticleNewsId&lt;/u&gt;&lt;/font&gt;&lt;/span&gt;" style="rounded=0;whiteSpace=wrap;html=1;align=left;fillColor=#f8cecc;strokeColor=#b85450;" parent="1" vertex="1">
          <mxGeometry x="80" y="1130" width="160" height="30" as="geometry" />
        </mxCell>
        <mxCell id="mSDbeqq_iYj_MectFKEQ-13" style="edgeStyle=orthogonalEdgeStyle;rounded=0;orthogonalLoop=1;jettySize=auto;html=1;" parent="1" source="mSDbeqq_iYj_MectFKEQ-10" edge="1">
          <mxGeometry relative="1" as="geometry">
            <Array as="points">
              <mxPoint x="440" y="1175" />
              <mxPoint x="440" y="1000" />
              <mxPoint x="480" y="1000" />
            </Array>
            <mxPoint x="480" y="1000" as="targetPoint" />
          </mxGeometry>
        </mxCell>
        <mxCell id="mSDbeqq_iYj_MectFKEQ-10" value="&lt;font style=&quot;font-size: 20px;&quot;&gt;&lt;u&gt;bookId&lt;/u&gt;&lt;/font&gt;" style="rounded=0;whiteSpace=wrap;html=1;align=left;fillColor=#f8cecc;strokeColor=#b85450;" parent="1" vertex="1">
          <mxGeometry x="80" y="1160" width="160" height="30" as="geometry" />
        </mxCell>
        <mxCell id="mPhfdzHuvVhSRqDDbm78-1" value="&lt;span style=&quot;font-size: 20px;&quot;&gt;Playlist&lt;/span&gt;" style="rounded=0;whiteSpace=wrap;html=1;align=center;fillColor=#d5e8d4;strokeColor=#82b366;" parent="1" vertex="1">
          <mxGeometry x="-560" y="710" width="160" height="30" as="geometry" />
        </mxCell>
        <mxCell id="qg4nGsobPkQ4AeUuwcPN-3" style="edgeStyle=orthogonalEdgeStyle;rounded=0;orthogonalLoop=1;jettySize=auto;html=1;endArrow=none;endFill=0;" parent="1" source="mPhfdzHuvVhSRqDDbm78-2" edge="1">
          <mxGeometry relative="1" as="geometry">
            <mxPoint x="-90" y="660" as="targetPoint" />
            <Array as="points">
              <mxPoint x="-380" y="750" />
              <mxPoint x="-380" y="660" />
            </Array>
          </mxGeometry>
        </mxCell>
        <mxCell id="mPhfdzHuvVhSRqDDbm78-2" value="&lt;font style=&quot;font-size: 20px;&quot;&gt;&lt;u&gt;playlistId&lt;/u&gt;&lt;/font&gt;" style="rounded=0;whiteSpace=wrap;html=1;align=left;fillColor=#f8cecc;strokeColor=#b85450;" parent="1" vertex="1">
          <mxGeometry x="-560" y="740" width="160" height="30" as="geometry" />
        </mxCell>
        <mxCell id="qg4nGsobPkQ4AeUuwcPN-4" value="&lt;span style=&quot;font-size: 20px;&quot;&gt;playlistBook&lt;/span&gt;" style="rounded=0;whiteSpace=wrap;html=1;align=center;fillColor=#d5e8d4;strokeColor=#82b366;" parent="1" vertex="1">
          <mxGeometry x="80" y="1220" width="160" height="30" as="geometry" />
        </mxCell>
        <mxCell id="qg4nGsobPkQ4AeUuwcPN-9" style="edgeStyle=orthogonalEdgeStyle;rounded=0;orthogonalLoop=1;jettySize=auto;html=1;entryX=1;entryY=0.75;entryDx=0;entryDy=0;" parent="1" source="qg4nGsobPkQ4AeUuwcPN-5" target="mPhfdzHuvVhSRqDDbm78-2" edge="1">
          <mxGeometry relative="1" as="geometry">
            <Array as="points">
              <mxPoint x="-380" y="1265" />
              <mxPoint x="-380" y="763" />
            </Array>
          </mxGeometry>
        </mxCell>
        <mxCell id="qg4nGsobPkQ4AeUuwcPN-5" value="&lt;font style=&quot;font-size: 20px;&quot;&gt;&lt;u&gt;playlistId&lt;/u&gt;&lt;/font&gt;" style="rounded=0;whiteSpace=wrap;html=1;align=left;fillColor=#f8cecc;strokeColor=#b85450;" parent="1" vertex="1">
          <mxGeometry x="80" y="1250" width="160" height="30" as="geometry" />
        </mxCell>
        <mxCell id="qg4nGsobPkQ4AeUuwcPN-8" style="edgeStyle=orthogonalEdgeStyle;rounded=0;orthogonalLoop=1;jettySize=auto;html=1;endArrow=none;endFill=0;" parent="1" source="qg4nGsobPkQ4AeUuwcPN-6" edge="1">
          <mxGeometry relative="1" as="geometry">
            <mxPoint x="440.0000000000002" y="1150" as="targetPoint" />
          </mxGeometry>
        </mxCell>
        <mxCell id="qg4nGsobPkQ4AeUuwcPN-6" value="&lt;span style=&quot;font-size: 20px;&quot;&gt;&lt;u&gt;bookId&lt;/u&gt;&lt;/span&gt;" style="rounded=0;whiteSpace=wrap;html=1;align=left;fillColor=#f8cecc;strokeColor=#b85450;" parent="1" vertex="1">
          <mxGeometry x="80" y="1280" width="160" height="30" as="geometry" />
        </mxCell>
        <mxCell id="mPmDRW_TB5vqi5qOGWoL-4" value="&lt;span style=&quot;font-size: 20px;&quot;&gt;name&lt;/span&gt;" style="rounded=0;whiteSpace=wrap;html=1;align=left;" parent="1" vertex="1">
          <mxGeometry x="600" y="700" width="160" height="30" as="geometry" />
        </mxCell>
        <mxCell id="mPmDRW_TB5vqi5qOGWoL-5" value="&lt;span style=&quot;font-size: 20px;&quot;&gt;name&lt;/span&gt;" style="rounded=0;whiteSpace=wrap;html=1;align=left;" parent="1" vertex="1">
          <mxGeometry x="400" y="700" width="160" height="30" as="geometry" />
        </mxCell>
        <mxCell id="mPmDRW_TB5vqi5qOGWoL-6" value="&lt;span style=&quot;font-size: 20px;&quot;&gt;picture&lt;/span&gt;" style="rounded=0;whiteSpace=wrap;html=1;align=left;" parent="1" vertex="1">
          <mxGeometry x="400" y="730" width="160" height="30" as="geometry" />
        </mxCell>
        <mxCell id="mPmDRW_TB5vqi5qOGWoL-7" value="&lt;span style=&quot;font-size: 20px;&quot;&gt;bio&lt;/span&gt;" style="rounded=0;whiteSpace=wrap;html=1;align=left;" parent="1" vertex="1">
          <mxGeometry x="400" y="760" width="160" height="30" as="geometry" />
        </mxCell>
        <mxCell id="mPmDRW_TB5vqi5qOGWoL-8" value="&lt;span style=&quot;font-size: 20px;&quot;&gt;rate(calc)&lt;/span&gt;" style="rounded=0;whiteSpace=wrap;html=1;align=left;" parent="1" vertex="1">
          <mxGeometry x="400" y="790" width="160" height="30" as="geometry" />
        </mxCell>
        <mxCell id="Air72QKf6QOYd8qCaaE_-1" value="&lt;span style=&quot;font-size: 20px;&quot;&gt;title&lt;/span&gt;" style="rounded=0;whiteSpace=wrap;html=1;align=left;fontStyle=0;" parent="1" vertex="1">
          <mxGeometry x="40" y="860" width="160" height="30" as="geometry" />
        </mxCell>
        <mxCell id="Air72QKf6QOYd8qCaaE_-2" value="&lt;span style=&quot;font-size: 20px;&quot;&gt;text&lt;/span&gt;" style="rounded=0;whiteSpace=wrap;html=1;align=left;fontStyle=0;" parent="1" vertex="1">
          <mxGeometry x="40" y="890" width="160" height="30" as="geometry" />
        </mxCell>
        <mxCell id="Air72QKf6QOYd8qCaaE_-4" style="edgeStyle=orthogonalEdgeStyle;rounded=0;orthogonalLoop=1;jettySize=auto;html=1;entryX=1;entryY=0.5;entryDx=0;entryDy=0;" parent="1" source="Air72QKf6QOYd8qCaaE_-3" target="lOQ9FkrNiBN728g6z-aP-3" edge="1">
          <mxGeometry relative="1" as="geometry">
            <Array as="points">
              <mxPoint x="220" y="935" />
              <mxPoint x="220" y="755" />
            </Array>
          </mxGeometry>
        </mxCell>
        <mxCell id="Air72QKf6QOYd8qCaaE_-3" value="&lt;span style=&quot;font-size: 20px;&quot;&gt;parentId&lt;/span&gt;" style="rounded=0;whiteSpace=wrap;html=1;align=left;fontStyle=0;fillColor=#f8cecc;strokeColor=#b85450;" parent="1" vertex="1">
          <mxGeometry x="40" y="920" width="160" height="30" as="geometry" />
        </mxCell>
        <mxCell id="0cnC9ira7yA7-DzJBpBY-1" value="&lt;font style=&quot;font-size: 20px;&quot;&gt;description&lt;/font&gt;" style="rounded=0;whiteSpace=wrap;html=1;align=left;" parent="1" vertex="1">
          <mxGeometry x="360" y="300" width="160" height="30" as="geometry" />
        </mxCell>
        <mxCell id="qX_xud3hcuByNjdsKDtI-1" value="&lt;font style=&quot;font-size: 20px;&quot;&gt;title&lt;/font&gt;" style="rounded=0;whiteSpace=wrap;html=1;align=left;" parent="1" vertex="1">
          <mxGeometry x="360" y="330" width="160" height="30" as="geometry" />
        </mxCell>
      </root>
    </mxGraphModel>
  </diagram>
</mxfile>
